<mxfile host="app.diagrams.net" modified="2024-06-05T03:05:41.005Z" agent="Mozilla/5.0 (Windows NT 10.0; Win64; x64) AppleWebKit/537.36 (KHTML, like Gecko) Chrome/114.0.0.0 Safari/537.36" etag="zOpi1kZ4KV54_kRd-vs9" version="24.4.13" type="github" pages="4">
  <diagram name="Page-1" id="74e2e168-ea6b-b213-b513-2b3c1d86103e">
    <mxGraphModel dx="1434" dy="796" grid="1" gridSize="10" guides="1" tooltips="1" connect="1" arrows="1" fold="1" page="1" pageScale="1" pageWidth="1100" pageHeight="850" background="none" math="0" shadow="0">
      <root>
        <mxCell id="0" />
        <mxCell id="1" parent="0" />
        <mxCell id="77e6c97f196da883-1" value="【QMS】鉴定结果同步WMS【新增】" style="swimlane;html=1;childLayout=stackLayout;startSize=20;rounded=0;shadow=0;labelBackgroundColor=none;strokeWidth=1;fontFamily=Verdana;fontSize=8;align=center;" parent="1" vertex="1">
          <mxGeometry x="70" y="40" width="480" height="450" as="geometry" />
        </mxCell>
        <mxCell id="77e6c97f196da883-2" value="WMS上抛鉴定码" style="swimlane;html=1;startSize=20;" parent="77e6c97f196da883-1" vertex="1">
          <mxGeometry y="20" width="160" height="430" as="geometry" />
        </mxCell>
        <mxCell id="bmt1hWSJGPFXBpwtD2tq-3" style="edgeStyle=orthogonalEdgeStyle;rounded=0;orthogonalLoop=1;jettySize=auto;html=1;" edge="1" parent="77e6c97f196da883-2" source="77e6c97f196da883-8" target="77e6c97f196da883-9">
          <mxGeometry relative="1" as="geometry" />
        </mxCell>
        <mxCell id="77e6c97f196da883-8" value="&lt;span style=&quot;font-family: -apple-system, BlinkMacSystemFont, &amp;quot;Segoe UI&amp;quot;, Roboto, Oxygen, Ubuntu, &amp;quot;Fira Sans&amp;quot;, &amp;quot;Droid Sans&amp;quot;, &amp;quot;Helvetica Neue&amp;quot;, sans-serif; font-size: 14px; text-align: left; background-color: rgb(255, 255, 255);&quot;&gt;查询鉴定结果&lt;/span&gt;" style="rounded=1;whiteSpace=wrap;html=1;shadow=0;labelBackgroundColor=none;strokeWidth=1;fontFamily=Verdana;fontSize=8;align=center;" parent="77e6c97f196da883-2" vertex="1">
          <mxGeometry x="30" y="70" width="100" height="60" as="geometry" />
        </mxCell>
        <mxCell id="77e6c97f196da883-9" value="&lt;span style=&quot;font-family: -apple-system, BlinkMacSystemFont, &amp;quot;Segoe UI&amp;quot;, Roboto, Oxygen, Ubuntu, &amp;quot;Fira Sans&amp;quot;, &amp;quot;Droid Sans&amp;quot;, &amp;quot;Helvetica Neue&amp;quot;, sans-serif; font-size: 14px; text-align: left; background-color: rgb(255, 255, 255);&quot;&gt;保存&lt;/span&gt;&lt;span style=&quot;font-family: -apple-system, BlinkMacSystemFont, &amp;quot;Segoe UI&amp;quot;, Roboto, Oxygen, Ubuntu, &amp;quot;Fira Sans&amp;quot;, &amp;quot;Droid Sans&amp;quot;, &amp;quot;Helvetica Neue&amp;quot;, sans-serif; font-size: 14px; text-align: left; background-color: rgb(255, 255, 255);&quot;&gt;鉴定码&lt;/span&gt;" style="rounded=1;whiteSpace=wrap;html=1;shadow=0;labelBackgroundColor=none;strokeWidth=1;fontFamily=Verdana;fontSize=8;align=center;" parent="77e6c97f196da883-2" vertex="1">
          <mxGeometry x="30" y="170" width="100" height="60" as="geometry" />
        </mxCell>
        <mxCell id="77e6c97f196da883-3" value="图灵上抛鉴定结果" style="swimlane;html=1;startSize=20;" parent="77e6c97f196da883-1" vertex="1">
          <mxGeometry x="160" y="20" width="160" height="430" as="geometry" />
        </mxCell>
        <mxCell id="77e6c97f196da883-11" value="保存鉴定结果&lt;div&gt;新增上抛任务&lt;/div&gt;" style="rounded=1;whiteSpace=wrap;html=1;shadow=0;labelBackgroundColor=none;strokeWidth=1;fontFamily=Verdana;fontSize=8;align=center;" parent="77e6c97f196da883-3" vertex="1">
          <mxGeometry x="30" y="250" width="100" height="60" as="geometry" />
        </mxCell>
        <mxCell id="77e6c97f196da883-4" value="上抛WMS作业任务" style="swimlane;html=1;startSize=20;" parent="77e6c97f196da883-1" vertex="1">
          <mxGeometry x="320" y="20" width="160" height="430" as="geometry" />
        </mxCell>
        <mxCell id="77e6c97f196da883-12" value="上抛鉴定结果" style="rounded=1;whiteSpace=wrap;html=1;shadow=0;labelBackgroundColor=none;strokeWidth=1;fontFamily=Verdana;fontSize=8;align=center;" parent="77e6c97f196da883-4" vertex="1">
          <mxGeometry x="30" y="335" width="100" height="60" as="geometry" />
        </mxCell>
      </root>
    </mxGraphModel>
  </diagram>
  <diagram id="UruNJeCRQ8fWOXEQeKw9" name="第 2 页">
    <mxGraphModel dx="1434" dy="796" grid="1" gridSize="10" guides="1" tooltips="1" connect="1" arrows="1" fold="1" page="1" pageScale="1" pageWidth="827" pageHeight="1169" math="0" shadow="0">
      <root>
        <mxCell id="0" />
        <mxCell id="1" parent="0" />
        <mxCell id="Wo1AXV4cD7wjIyYwQVkd-1" value="【QMS】鉴定结果同步WMS【新增】" style="swimlane;html=1;childLayout=stackLayout;startSize=20;rounded=0;shadow=0;labelBackgroundColor=none;strokeWidth=1;fontFamily=Verdana;fontSize=8;align=center;" vertex="1" parent="1">
          <mxGeometry x="160" y="70" width="480" height="520" as="geometry" />
        </mxCell>
        <mxCell id="Wo1AXV4cD7wjIyYwQVkd-2" value="WMS上抛鉴定码" style="swimlane;html=1;startSize=20;" vertex="1" parent="Wo1AXV4cD7wjIyYwQVkd-1">
          <mxGeometry y="20" width="160" height="500" as="geometry" />
        </mxCell>
        <mxCell id="Wo1AXV4cD7wjIyYwQVkd-3" style="edgeStyle=orthogonalEdgeStyle;rounded=0;orthogonalLoop=1;jettySize=auto;html=1;" edge="1" parent="Wo1AXV4cD7wjIyYwQVkd-2" source="Wo1AXV4cD7wjIyYwQVkd-4" target="Wo1AXV4cD7wjIyYwQVkd-5">
          <mxGeometry relative="1" as="geometry" />
        </mxCell>
        <mxCell id="Wo1AXV4cD7wjIyYwQVkd-4" value="&lt;span style=&quot;font-family: -apple-system, BlinkMacSystemFont, &amp;quot;Segoe UI&amp;quot;, Roboto, Oxygen, Ubuntu, &amp;quot;Fira Sans&amp;quot;, &amp;quot;Droid Sans&amp;quot;, &amp;quot;Helvetica Neue&amp;quot;, sans-serif; font-size: 14px; text-align: left; background-color: rgb(255, 255, 255);&quot;&gt;查询鉴定结果&lt;/span&gt;" style="rounded=1;whiteSpace=wrap;html=1;shadow=0;labelBackgroundColor=none;strokeWidth=1;fontFamily=Verdana;fontSize=8;align=center;" vertex="1" parent="Wo1AXV4cD7wjIyYwQVkd-2">
          <mxGeometry x="30" y="230" width="100" height="60" as="geometry" />
        </mxCell>
        <mxCell id="Wo1AXV4cD7wjIyYwQVkd-5" value="&lt;span style=&quot;font-family: -apple-system, BlinkMacSystemFont, &amp;quot;Segoe UI&amp;quot;, Roboto, Oxygen, Ubuntu, &amp;quot;Fira Sans&amp;quot;, &amp;quot;Droid Sans&amp;quot;, &amp;quot;Helvetica Neue&amp;quot;, sans-serif; font-size: 14px; text-align: left; background-color: rgb(255, 255, 255);&quot;&gt;保存&lt;/span&gt;&lt;span style=&quot;font-family: -apple-system, BlinkMacSystemFont, &amp;quot;Segoe UI&amp;quot;, Roboto, Oxygen, Ubuntu, &amp;quot;Fira Sans&amp;quot;, &amp;quot;Droid Sans&amp;quot;, &amp;quot;Helvetica Neue&amp;quot;, sans-serif; font-size: 14px; text-align: left; background-color: rgb(255, 255, 255);&quot;&gt;鉴定码&lt;/span&gt;&lt;div&gt;新增上抛任务&lt;span style=&quot;font-family: -apple-system, BlinkMacSystemFont, &amp;quot;Segoe UI&amp;quot;, Roboto, Oxygen, Ubuntu, &amp;quot;Fira Sans&amp;quot;, &amp;quot;Droid Sans&amp;quot;, &amp;quot;Helvetica Neue&amp;quot;, sans-serif; font-size: 14px; text-align: left; background-color: rgb(255, 255, 255);&quot;&gt;&lt;br&gt;&lt;/span&gt;&lt;/div&gt;" style="rounded=1;whiteSpace=wrap;html=1;shadow=0;labelBackgroundColor=none;strokeWidth=1;fontFamily=Verdana;fontSize=8;align=center;" vertex="1" parent="Wo1AXV4cD7wjIyYwQVkd-2">
          <mxGeometry x="30" y="330" width="100" height="60" as="geometry" />
        </mxCell>
        <mxCell id="Wo1AXV4cD7wjIyYwQVkd-6" value="图灵上抛鉴定结果" style="swimlane;html=1;startSize=20;" vertex="1" parent="Wo1AXV4cD7wjIyYwQVkd-1">
          <mxGeometry x="160" y="20" width="160" height="500" as="geometry" />
        </mxCell>
        <mxCell id="Wo1AXV4cD7wjIyYwQVkd-7" value="保存鉴定结果&lt;div&gt;新增上抛任务&lt;/div&gt;" style="rounded=1;whiteSpace=wrap;html=1;shadow=0;labelBackgroundColor=none;strokeWidth=1;fontFamily=Verdana;fontSize=8;align=center;" vertex="1" parent="Wo1AXV4cD7wjIyYwQVkd-6">
          <mxGeometry x="30" y="70" width="100" height="60" as="geometry" />
        </mxCell>
        <mxCell id="Wo1AXV4cD7wjIyYwQVkd-8" value="上抛WMS作业任务" style="swimlane;html=1;startSize=20;" vertex="1" parent="Wo1AXV4cD7wjIyYwQVkd-1">
          <mxGeometry x="320" y="20" width="160" height="500" as="geometry" />
        </mxCell>
        <mxCell id="Wo1AXV4cD7wjIyYwQVkd-9" value="上抛鉴定结果" style="rounded=1;whiteSpace=wrap;html=1;shadow=0;labelBackgroundColor=none;strokeWidth=1;fontFamily=Verdana;fontSize=8;align=center;" vertex="1" parent="Wo1AXV4cD7wjIyYwQVkd-8">
          <mxGeometry x="30" y="150" width="100" height="60" as="geometry" />
        </mxCell>
        <mxCell id="Wo1AXV4cD7wjIyYwQVkd-12" value="上抛鉴定结果" style="rounded=1;whiteSpace=wrap;html=1;shadow=0;labelBackgroundColor=none;strokeWidth=1;fontFamily=Verdana;fontSize=8;align=center;" vertex="1" parent="Wo1AXV4cD7wjIyYwQVkd-8">
          <mxGeometry x="30" y="410" width="100" height="60" as="geometry" />
        </mxCell>
      </root>
    </mxGraphModel>
  </diagram>
  <diagram id="5fNMfIgQjF7hquKvInxe" name="第 3 页">
    <mxGraphModel dx="1434" dy="796" grid="1" gridSize="10" guides="1" tooltips="1" connect="1" arrows="1" fold="1" page="1" pageScale="1" pageWidth="827" pageHeight="1169" math="0" shadow="0">
      <root>
        <mxCell id="0" />
        <mxCell id="1" parent="0" />
        <mxCell id="lU1bL22WnuLhG7X6Tsej-1" value="【QMS】鉴定结果同步WMS【新增】" style="swimlane;html=1;childLayout=stackLayout;startSize=20;rounded=0;shadow=0;labelBackgroundColor=none;strokeWidth=1;fontFamily=Verdana;fontSize=8;align=center;" vertex="1" parent="1">
          <mxGeometry x="160" y="70" width="480" height="520" as="geometry" />
        </mxCell>
        <mxCell id="lU1bL22WnuLhG7X6Tsej-2" value="WMS上抛鉴定码" style="swimlane;html=1;startSize=20;" vertex="1" parent="lU1bL22WnuLhG7X6Tsej-1">
          <mxGeometry y="20" width="160" height="500" as="geometry" />
        </mxCell>
        <mxCell id="lU1bL22WnuLhG7X6Tsej-3" style="edgeStyle=orthogonalEdgeStyle;rounded=0;orthogonalLoop=1;jettySize=auto;html=1;" edge="1" parent="lU1bL22WnuLhG7X6Tsej-2" source="lU1bL22WnuLhG7X6Tsej-4" target="lU1bL22WnuLhG7X6Tsej-5">
          <mxGeometry relative="1" as="geometry" />
        </mxCell>
        <mxCell id="lU1bL22WnuLhG7X6Tsej-4" value="&lt;span style=&quot;font-family: -apple-system, BlinkMacSystemFont, &amp;quot;Segoe UI&amp;quot;, Roboto, Oxygen, Ubuntu, &amp;quot;Fira Sans&amp;quot;, &amp;quot;Droid Sans&amp;quot;, &amp;quot;Helvetica Neue&amp;quot;, sans-serif; font-size: 14px; text-align: left; background-color: rgb(255, 255, 255);&quot;&gt;查询鉴定结果&lt;/span&gt;" style="rounded=1;whiteSpace=wrap;html=1;shadow=0;labelBackgroundColor=none;strokeWidth=1;fontFamily=Verdana;fontSize=8;align=center;" vertex="1" parent="lU1bL22WnuLhG7X6Tsej-2">
          <mxGeometry x="30" y="150" width="100" height="60" as="geometry" />
        </mxCell>
        <mxCell id="lU1bL22WnuLhG7X6Tsej-5" value="&lt;span style=&quot;font-family: -apple-system, BlinkMacSystemFont, &amp;quot;Segoe UI&amp;quot;, Roboto, Oxygen, Ubuntu, &amp;quot;Fira Sans&amp;quot;, &amp;quot;Droid Sans&amp;quot;, &amp;quot;Helvetica Neue&amp;quot;, sans-serif; font-size: 14px; text-align: left; background-color: rgb(255, 255, 255);&quot;&gt;保存&lt;/span&gt;&lt;span style=&quot;font-family: -apple-system, BlinkMacSystemFont, &amp;quot;Segoe UI&amp;quot;, Roboto, Oxygen, Ubuntu, &amp;quot;Fira Sans&amp;quot;, &amp;quot;Droid Sans&amp;quot;, &amp;quot;Helvetica Neue&amp;quot;, sans-serif; font-size: 14px; text-align: left; background-color: rgb(255, 255, 255);&quot;&gt;鉴定码&lt;/span&gt;&lt;div&gt;新增上抛任务&lt;span style=&quot;font-family: -apple-system, BlinkMacSystemFont, &amp;quot;Segoe UI&amp;quot;, Roboto, Oxygen, Ubuntu, &amp;quot;Fira Sans&amp;quot;, &amp;quot;Droid Sans&amp;quot;, &amp;quot;Helvetica Neue&amp;quot;, sans-serif; font-size: 14px; text-align: left; background-color: rgb(255, 255, 255);&quot;&gt;&lt;br&gt;&lt;/span&gt;&lt;/div&gt;" style="rounded=1;whiteSpace=wrap;html=1;shadow=0;labelBackgroundColor=none;strokeWidth=1;fontFamily=Verdana;fontSize=8;align=center;" vertex="1" parent="lU1bL22WnuLhG7X6Tsej-2">
          <mxGeometry x="30" y="330" width="100" height="60" as="geometry" />
        </mxCell>
        <mxCell id="lU1bL22WnuLhG7X6Tsej-6" value="图灵上抛鉴定结果" style="swimlane;html=1;startSize=20;" vertex="1" parent="lU1bL22WnuLhG7X6Tsej-1">
          <mxGeometry x="160" y="20" width="160" height="500" as="geometry" />
        </mxCell>
        <mxCell id="lU1bL22WnuLhG7X6Tsej-7" value="保存鉴定结果&lt;div&gt;新增上抛任务&lt;/div&gt;" style="rounded=1;whiteSpace=wrap;html=1;shadow=0;labelBackgroundColor=none;strokeWidth=1;fontFamily=Verdana;fontSize=8;align=center;" vertex="1" parent="lU1bL22WnuLhG7X6Tsej-6">
          <mxGeometry x="30" y="70" width="100" height="60" as="geometry" />
        </mxCell>
        <mxCell id="lU1bL22WnuLhG7X6Tsej-8" value="上抛WMS作业任务" style="swimlane;html=1;startSize=20;" vertex="1" parent="lU1bL22WnuLhG7X6Tsej-1">
          <mxGeometry x="320" y="20" width="160" height="500" as="geometry" />
        </mxCell>
        <mxCell id="lU1bL22WnuLhG7X6Tsej-9" value="上抛鉴定结果" style="rounded=1;whiteSpace=wrap;html=1;shadow=0;labelBackgroundColor=none;strokeWidth=1;fontFamily=Verdana;fontSize=8;align=center;" vertex="1" parent="lU1bL22WnuLhG7X6Tsej-8">
          <mxGeometry x="30" y="230" width="100" height="60" as="geometry" />
        </mxCell>
        <mxCell id="5faF3qvfeoL5Xy0pzEN7-1" value="上抛鉴定结果" style="rounded=1;whiteSpace=wrap;html=1;shadow=0;labelBackgroundColor=none;strokeWidth=1;fontFamily=Verdana;fontSize=8;align=center;" vertex="1" parent="lU1bL22WnuLhG7X6Tsej-8">
          <mxGeometry x="30" y="410" width="100" height="60" as="geometry" />
        </mxCell>
      </root>
    </mxGraphModel>
  </diagram>
  <diagram id="jnNsNMoTDoYq1FVRUxV4" name="第 4 页">
    <mxGraphModel dx="1434" dy="796" grid="1" gridSize="10" guides="1" tooltips="1" connect="1" arrows="1" fold="1" page="1" pageScale="1" pageWidth="827" pageHeight="1169" math="0" shadow="0">
      <root>
        <mxCell id="0" />
        <mxCell id="1" parent="0" />
        <mxCell id="IpzEu48_jM2Fdhp63iYI-1" value="【QMS】鉴定结果同步WMS【新增】" style="swimlane;html=1;childLayout=stackLayout;startSize=20;rounded=0;shadow=0;labelBackgroundColor=none;strokeWidth=1;fontFamily=Verdana;fontSize=8;align=center;" vertex="1" parent="1">
          <mxGeometry x="160" y="70" width="480" height="590" as="geometry" />
        </mxCell>
        <mxCell id="IpzEu48_jM2Fdhp63iYI-2" value="WMS上抛鉴定码" style="swimlane;html=1;startSize=20;" vertex="1" parent="IpzEu48_jM2Fdhp63iYI-1">
          <mxGeometry y="20" width="160" height="570" as="geometry" />
        </mxCell>
        <mxCell id="IpzEu48_jM2Fdhp63iYI-3" style="edgeStyle=orthogonalEdgeStyle;rounded=0;orthogonalLoop=1;jettySize=auto;html=1;" edge="1" parent="IpzEu48_jM2Fdhp63iYI-2" source="IpzEu48_jM2Fdhp63iYI-4" target="IpzEu48_jM2Fdhp63iYI-5">
          <mxGeometry relative="1" as="geometry" />
        </mxCell>
        <mxCell id="IpzEu48_jM2Fdhp63iYI-4" value="&lt;span style=&quot;font-family: -apple-system, BlinkMacSystemFont, &amp;quot;Segoe UI&amp;quot;, Roboto, Oxygen, Ubuntu, &amp;quot;Fira Sans&amp;quot;, &amp;quot;Droid Sans&amp;quot;, &amp;quot;Helvetica Neue&amp;quot;, sans-serif; font-size: 14px; text-align: left; background-color: rgb(255, 255, 255);&quot;&gt;查询鉴定结果&lt;/span&gt;" style="rounded=1;whiteSpace=wrap;html=1;shadow=0;labelBackgroundColor=none;strokeWidth=1;fontFamily=Verdana;fontSize=8;align=center;" vertex="1" parent="IpzEu48_jM2Fdhp63iYI-2">
          <mxGeometry x="30" y="70" width="100" height="60" as="geometry" />
        </mxCell>
        <mxCell id="IpzEu48_jM2Fdhp63iYI-5" value="&lt;span style=&quot;font-family: -apple-system, BlinkMacSystemFont, &amp;quot;Segoe UI&amp;quot;, Roboto, Oxygen, Ubuntu, &amp;quot;Fira Sans&amp;quot;, &amp;quot;Droid Sans&amp;quot;, &amp;quot;Helvetica Neue&amp;quot;, sans-serif; font-size: 14px; text-align: left; background-color: rgb(255, 255, 255);&quot;&gt;保存&lt;/span&gt;&lt;span style=&quot;font-family: -apple-system, BlinkMacSystemFont, &amp;quot;Segoe UI&amp;quot;, Roboto, Oxygen, Ubuntu, &amp;quot;Fira Sans&amp;quot;, &amp;quot;Droid Sans&amp;quot;, &amp;quot;Helvetica Neue&amp;quot;, sans-serif; font-size: 14px; text-align: left; background-color: rgb(255, 255, 255);&quot;&gt;鉴定码&lt;/span&gt;" style="rounded=1;whiteSpace=wrap;html=1;shadow=0;labelBackgroundColor=none;strokeWidth=1;fontFamily=Verdana;fontSize=8;align=center;" vertex="1" parent="IpzEu48_jM2Fdhp63iYI-2">
          <mxGeometry x="30" y="330" width="100" height="60" as="geometry" />
        </mxCell>
        <mxCell id="IpzEu48_jM2Fdhp63iYI-6" value="图灵上抛鉴定结果" style="swimlane;html=1;startSize=20;" vertex="1" parent="IpzEu48_jM2Fdhp63iYI-1">
          <mxGeometry x="160" y="20" width="160" height="570" as="geometry" />
        </mxCell>
        <mxCell id="IpzEu48_jM2Fdhp63iYI-7" value="保存鉴定结果&lt;div&gt;新增上抛任务&lt;/div&gt;" style="rounded=1;whiteSpace=wrap;html=1;shadow=0;labelBackgroundColor=none;strokeWidth=1;fontFamily=Verdana;fontSize=8;align=center;" vertex="1" parent="IpzEu48_jM2Fdhp63iYI-6">
          <mxGeometry x="30" y="150" width="100" height="60" as="geometry" />
        </mxCell>
        <mxCell id="IpzEu48_jM2Fdhp63iYI-8" value="上抛WMS作业任务" style="swimlane;html=1;startSize=20;" vertex="1" parent="IpzEu48_jM2Fdhp63iYI-1">
          <mxGeometry x="320" y="20" width="160" height="570" as="geometry" />
        </mxCell>
        <mxCell id="IpzEu48_jM2Fdhp63iYI-9" value="上抛任务1执行失败" style="rounded=1;whiteSpace=wrap;html=1;shadow=0;labelBackgroundColor=none;strokeWidth=1;fontFamily=Verdana;fontSize=8;align=center;" vertex="1" parent="IpzEu48_jM2Fdhp63iYI-8">
          <mxGeometry x="25" y="230" width="110" height="60" as="geometry" />
        </mxCell>
        <mxCell id="UaSu8OTwqUBZES1Su1V0-1" value="上抛任务1重试成功" style="rounded=1;whiteSpace=wrap;html=1;shadow=0;labelBackgroundColor=none;strokeWidth=1;fontFamily=Verdana;fontSize=8;align=center;" vertex="1" parent="IpzEu48_jM2Fdhp63iYI-8">
          <mxGeometry x="25" y="410" width="110" height="60" as="geometry" />
        </mxCell>
      </root>
    </mxGraphModel>
  </diagram>
</mxfile>
